<svg width="49" height="41" viewBox="0 0 49 41" fill="none" xmlns="http://www.w3.org/2000/svg">
<path d="M15.7242 40L1 7.52018V7.46091H13.9103C15.2635 7.29962 15.7742 6.98083 16.2043 5.97917C16.2936 5.91047 18.1475 0.94211 19.7253 1.00051C21.3031 1.05891 23.1396 5.97917 23.1396 5.97917C23.8145 7.17083 24.3372 7.5034 25.5403 7.46091H33.0624L33.4892 7.75726L36.1566 13.9213H28.3144C27.1406 13.9033 26.5772 13.636 25.9671 12.084C25.9421 12.2121 24.3319 7.48602 22.6061 7.40164C20.8803 7.31726 19.3611 12.1142 19.2985 12.084C18.6898 13.5643 18.1436 13.9184 16.8978 13.9213H9.85585L12.8434 20.441H19.9921C21.0442 20.4393 21.5416 20.1743 22.126 18.8407C22.126 18.8407 23.9932 13.9213 25.5403 13.9213C27.0874 13.9213 29.0079 18.8407 29.0079 18.8407C29.6784 20.2041 30.2076 20.5741 31.462 20.441H39.1975L42.0783 26.9014H33.8093C32.8797 26.8441 32.4585 26.4739 31.8888 25.1826C31.8888 25.1826 30.235 20.441 28.4745 20.441C26.714 20.441 25.1135 25.1826 25.1135 25.1826C24.547 26.5598 24.054 26.8286 23.0329 26.9014H15.7242L18.6583 33.4211H25.7003C26.8776 33.4367 27.4632 33.1613 28.2077 31.5244C29.3086 29.089 30.1816 26.9607 31.462 26.9607C32.7423 26.9607 33.6857 29.0032 34.6095 31.5244C35.2986 32.9325 35.8281 33.3672 37.0636 33.4211H45.0658L48 40H39.8377C38.7259 39.8351 38.2313 39.3907 37.597 37.9256C36.5483 34.769 34.9719 33.4538 34.2894 33.4211C33.607 33.3883 32.0772 34.7886 31.1419 37.9256C30.6172 39.4849 30.0398 39.8449 28.7412 40H15.7242Z" fill="#008BAB" stroke="#008BAB"/>
</svg>
