<svg width="102" height="85" viewBox="0 0 102 85" fill="none" xmlns="http://www.w3.org/2000/svg">
<path d="M32.328 84L1 14.8763V14.7501H28.4688C31.3478 14.4069 32.4344 13.7284 33.3496 11.5967C33.5396 11.4505 37.4841 0.876799 40.8411 1.00109C44.1981 1.12538 48.1056 11.5967 48.1056 11.5967C49.5414 14.1328 50.6535 14.8406 53.2134 14.7501H69.2179L70.126 15.3808L75.8014 28.4992H59.1158C56.6183 28.4609 55.4196 27.892 54.1215 24.5889C54.0683 24.8617 50.6424 14.8036 46.9705 14.624C43.2985 14.4444 40.0662 24.6533 39.933 24.5889C38.6379 27.7395 37.4757 28.493 34.8252 28.4992H19.8422L26.1986 42.3744H41.4086C43.6473 42.3708 44.7056 41.8068 45.9489 38.9687C45.9489 38.9687 49.9217 28.4992 53.2134 28.4992C56.5051 28.4992 60.5914 38.9687 60.5914 38.9687C62.0179 41.8703 63.1439 42.6576 65.8127 42.3744H82.2713L88.4007 56.1235H70.807C68.8291 56.0015 67.9329 55.2137 66.7208 52.4655C66.7208 52.4655 63.202 42.3744 59.4563 42.3744C55.7106 42.3744 52.3053 52.4655 52.3053 52.4655C51.0999 55.3966 50.0511 55.9685 47.8785 56.1235H32.328L38.5709 69.9987H53.5539C56.0588 70.0319 57.3047 69.4459 58.8888 65.9622C61.231 60.7792 63.0885 56.2496 65.8127 56.2496C68.5369 56.2496 70.544 60.5964 72.5096 65.9622C73.9757 68.9589 75.1023 69.884 77.731 69.9987H94.7571L101 84H83.6334C81.2679 83.649 80.2155 82.7033 78.8661 79.5852C76.6347 72.8673 73.2806 70.0684 71.8286 69.9987C70.3766 69.9289 67.1218 72.9091 65.1317 79.5852C64.0153 82.9037 62.7869 83.67 60.0238 84H32.328Z" fill="#008BAB" stroke="#008BAB"/>
</svg>
