<svg width="443" height="330" viewBox="0 0 443 330" fill="none" xmlns="http://www.w3.org/2000/svg">
<path d="M267 329.5H140.5L1 55H124.5C135.415 55.1079 140.776 50.8716 148.5 33C148.5 33 162.5 1 176.5 1C190.5 1 203.5 33 203.5 33C210.181 46.5381 214.033 53.8542 225.5 55L303.5 56C312.5 74 330.7 110 331.5 110H255C246.332 109.711 242.378 107.432 232 86.5C232 86.5 216.5 55 203.5 55C190.5 55 176.5 86.5 176.5 86.5C169.271 103.053 164.446 109.417 153 110H84L112.5 165H180C191.326 165.374 195.888 158.745 203 143C203 143 216.5 110 231 110C245.5 110 258.5 143 258.5 143C266.751 160.62 272.075 165.558 283 165H358.5L386 220H309C297.821 218.638 293.689 211.906 287 198C287 198 273 165 258.5 165C244 165 230.5 198 230.5 198C222.987 215.527 216.808 219.922 207 220H139L167.5 275.5H231C246.683 273.494 252.391 267.944 260 249.5C260 249.5 273.5 220 286.5 220C299.5 220 313 249.5 313 249.5C323.614 270.404 328.42 275.956 339.5 275.5H414.5L441.5 329.5H362C352.356 329.177 346.336 321.802 339.5 305C339.5 305 327 275.5 313 275.5C299 275.5 287.5 305 287.5 305C278.564 323.589 273.7 329.068 267 329.5Z" fill="#161E23" stroke="#161E23"/>
</svg>
